<mxfile host="app.diagrams.net" modified="2021-11-15T04:15:39.141Z" agent="5.0 (Windows NT 10.0; Win64; x64) AppleWebKit/537.36 (KHTML, like Gecko) Chrome/95.0.4638.69 Safari/537.36" etag="zhDcVrZg9i7O6Q3cOhRE" version="15.2.9" type="github">
  <diagram id="ZKK7Xh2nmRTc22aEWUPY" name="Page-1">
    <mxGraphModel dx="5167" dy="3419" grid="1" gridSize="10" guides="1" tooltips="1" connect="1" arrows="1" fold="1" page="1" pageScale="1" pageWidth="827" pageHeight="1169" math="0" shadow="0">
      <root>
        <mxCell id="0" />
        <mxCell id="1" parent="0" />
        <mxCell id="v2i8IFnvXQYw_XU6sGci-10" value="" style="rounded=0;whiteSpace=wrap;html=1;fillColor=#fff2cc;strokeColor=#d6b656;strokeWidth=2;fontSize=14;" parent="1" vertex="1">
          <mxGeometry x="-210" y="-940" width="2810" height="6210" as="geometry" />
        </mxCell>
        <mxCell id="v2i8IFnvXQYw_XU6sGci-6" value="AUTENTICACION BIOMETRICA - MODELO C4" style="text;strokeColor=none;fillColor=none;html=1;fontSize=33;fontStyle=1;verticalAlign=middle;align=center;strokeWidth=5;" parent="1" vertex="1">
          <mxGeometry x="-120" y="-890" width="759" height="40" as="geometry" />
        </mxCell>
        <mxCell id="v2i8IFnvXQYw_XU6sGci-7" value="" style="line;strokeWidth=4;fillColor=none;align=left;verticalAlign=middle;spacingTop=-1;spacingLeft=3;spacingRight=3;rotatable=0;labelPosition=right;points=[];portConstraint=eastwest;fontSize=14;" parent="1" vertex="1">
          <mxGeometry x="-106" y="-830" width="920" height="8" as="geometry" />
        </mxCell>
        <mxCell id="mpdO8tZQgs7oVaQ_EQz1-1" value="" style="rounded=0;whiteSpace=wrap;html=1;" vertex="1" parent="1">
          <mxGeometry x="-130" y="-750" width="2610" height="5940" as="geometry" />
        </mxCell>
        <mxCell id="mpdO8tZQgs7oVaQ_EQz1-2" value="Diagrama de componentes" style="text;strokeColor=none;fillColor=none;html=1;fontSize=35;fontStyle=1;verticalAlign=middle;align=center;" vertex="1" parent="1">
          <mxGeometry x="-71" y="-710" width="485" height="40" as="geometry" />
        </mxCell>
        <mxCell id="mpdO8tZQgs7oVaQ_EQz1-3" value="" style="shape=folder;tabWidth=1318;tabHeight=58;tabPosition=left;strokeWidth=2;html=1;whiteSpace=wrap;align=center;" vertex="1" parent="1">
          <mxGeometry x="-77.5" y="-608" width="2457.5" height="5738" as="geometry" />
        </mxCell>
        <mxCell id="mpdO8tZQgs7oVaQ_EQz1-4" value="" style="shape=folder;tabWidth=950;tabHeight=70;tabPosition=left;strokeWidth=2;html=1;whiteSpace=wrap;align=center;" vertex="1" parent="1">
          <mxGeometry x="-20" y="-500" width="2330" height="1772.5" as="geometry" />
        </mxCell>
        <mxCell id="mpdO8tZQgs7oVaQ_EQz1-5" value="&lt;b style=&quot;font-size: 35px;&quot;&gt;&lt;font style=&quot;font-size: 35px;&quot;&gt;com.&lt;/font&gt;&lt;/b&gt;&lt;font style=&quot;font-size: 35px;&quot;&gt;&lt;b style=&quot;font-size: 35px;&quot;&gt;co.autenticacionbiometricaapirest.&lt;/b&gt;&lt;span style=&quot;font-size: 35px;&quot;&gt;&lt;b style=&quot;font-size: 35px;&quot;&gt;pilotoautenticacionbiometrica&lt;/b&gt;&lt;/span&gt;&lt;/font&gt;" style="text;html=1;strokeColor=none;fillColor=none;align=center;verticalAlign=middle;whiteSpace=wrap;rounded=0;fontSize=35;" vertex="1" parent="1">
          <mxGeometry x="-66.25" y="-590" width="1226.25" height="20" as="geometry" />
        </mxCell>
        <mxCell id="mpdO8tZQgs7oVaQ_EQz1-6" value="" style="shape=folder;tabWidth=445;tabHeight=40;tabPosition=left;strokeWidth=2;html=1;whiteSpace=wrap;align=center;" vertex="1" parent="1">
          <mxGeometry x="15" y="-380" width="935" height="420" as="geometry" />
        </mxCell>
        <mxCell id="mpdO8tZQgs7oVaQ_EQz1-7" value="&lt;b style=&quot;font-size: 35px;&quot;&gt;&lt;font style=&quot;font-size: 35px;&quot;&gt;controller&lt;/font&gt;&lt;/b&gt;" style="text;html=1;strokeColor=none;fillColor=none;align=center;verticalAlign=middle;whiteSpace=wrap;rounded=0;fontSize=35;" vertex="1" parent="1">
          <mxGeometry x="55" y="-370" width="125" height="20" as="geometry" />
        </mxCell>
        <mxCell id="mpdO8tZQgs7oVaQ_EQz1-8" value="" style="shape=folder;tabWidth=443;tabHeight=50;tabPosition=left;strokeWidth=2;html=1;whiteSpace=wrap;align=center;" vertex="1" parent="1">
          <mxGeometry x="17.5" y="100" width="932.5" height="530" as="geometry" />
        </mxCell>
        <mxCell id="mpdO8tZQgs7oVaQ_EQz1-9" value="&lt;b style=&quot;font-size: 35px;&quot;&gt;&lt;font style=&quot;font-size: 35px;&quot;&gt;model&lt;/font&gt;&lt;/b&gt;" style="text;html=1;strokeColor=none;fillColor=none;align=center;verticalAlign=middle;whiteSpace=wrap;rounded=0;fontSize=35;" vertex="1" parent="1">
          <mxGeometry x="42.5" y="110" width="82.5" height="20" as="geometry" />
        </mxCell>
        <mxCell id="mpdO8tZQgs7oVaQ_EQz1-10" value="" style="shape=folder;tabWidth=509;tabHeight=50;tabPosition=left;strokeWidth=2;html=1;whiteSpace=wrap;align=center;" vertex="1" parent="1">
          <mxGeometry x="1100" y="-400" width="1150" height="435" as="geometry" />
        </mxCell>
        <mxCell id="mpdO8tZQgs7oVaQ_EQz1-11" value="&lt;b style=&quot;font-size: 35px;&quot;&gt;&lt;font style=&quot;font-size: 35px;&quot;&gt;service&lt;/font&gt;&lt;/b&gt;" style="text;html=1;strokeColor=none;fillColor=none;align=center;verticalAlign=middle;whiteSpace=wrap;rounded=0;fontSize=35;" vertex="1" parent="1">
          <mxGeometry x="1350" y="-380" width="85" height="20" as="geometry" />
        </mxCell>
        <mxCell id="mpdO8tZQgs7oVaQ_EQz1-12" value="" style="shape=folder;tabWidth=510;tabHeight=50;tabPosition=left;strokeWidth=2;html=1;whiteSpace=wrap;align=center;" vertex="1" parent="1">
          <mxGeometry x="1100" y="90" width="1150" height="530" as="geometry" />
        </mxCell>
        <mxCell id="mpdO8tZQgs7oVaQ_EQz1-13" value="&lt;b style=&quot;font-size: 35px;&quot;&gt;&lt;font style=&quot;font-size: 35px;&quot;&gt;dao&lt;/font&gt;&lt;/b&gt;" style="text;html=1;strokeColor=none;fillColor=none;align=center;verticalAlign=middle;whiteSpace=wrap;rounded=0;fontSize=35;" vertex="1" parent="1">
          <mxGeometry x="1317.5" y="110" width="90" height="20" as="geometry" />
        </mxCell>
        <mxCell id="mpdO8tZQgs7oVaQ_EQz1-14" value="UsuarioController&#xa;&lt;&lt;class&gt;&gt;" style="swimlane;fontStyle=1;align=center;verticalAlign=top;childLayout=stackLayout;horizontal=1;startSize=74;horizontalStack=0;resizeParent=1;resizeParentMax=0;resizeLast=0;collapsible=1;marginBottom=0;fontSize=28;" vertex="1" parent="1">
          <mxGeometry x="42.5" y="-313.5" width="417.5" height="260" as="geometry" />
        </mxCell>
        <mxCell id="mpdO8tZQgs7oVaQ_EQz1-15" value="- UsuarioService usuarioService" style="text;strokeColor=none;fillColor=none;align=left;verticalAlign=top;spacingLeft=4;spacingRight=4;overflow=hidden;rotatable=0;points=[[0,0.5],[1,0.5]];portConstraint=eastwest;fontSize=25;" vertex="1" parent="mpdO8tZQgs7oVaQ_EQz1-14">
          <mxGeometry y="74" width="417.5" height="23" as="geometry" />
        </mxCell>
        <mxCell id="mpdO8tZQgs7oVaQ_EQz1-16" value="" style="line;strokeWidth=1;fillColor=none;align=left;verticalAlign=middle;spacingTop=-1;spacingLeft=3;spacingRight=3;rotatable=0;labelPosition=right;points=[];portConstraint=eastwest;" vertex="1" parent="mpdO8tZQgs7oVaQ_EQz1-14">
          <mxGeometry y="97" width="417.5" height="43" as="geometry" />
        </mxCell>
        <mxCell id="mpdO8tZQgs7oVaQ_EQz1-17" value="+ UsuarioResponse crearUsuario(UsuarioRequest)&#xa;+ UsuarioResponse editarUsuario(UsuarioRequest)" style="text;strokeColor=none;fillColor=none;align=left;verticalAlign=top;spacingLeft=4;spacingRight=4;overflow=hidden;rotatable=0;points=[[0,0.5],[1,0.5]];portConstraint=eastwest;fontSize=25;" vertex="1" parent="mpdO8tZQgs7oVaQ_EQz1-14">
          <mxGeometry y="140" width="417.5" height="120" as="geometry" />
        </mxCell>
        <mxCell id="mpdO8tZQgs7oVaQ_EQz1-18" value="UsuarioService&#xa;&lt;interface&gt;" style="swimlane;fontStyle=1;align=center;verticalAlign=top;childLayout=stackLayout;horizontal=1;startSize=80;horizontalStack=0;resizeParent=1;resizeParentMax=0;resizeLast=0;collapsible=1;marginBottom=0;fillColor=#67AB9F;fontSize=28;" vertex="1" parent="1">
          <mxGeometry x="520" y="-302.5" width="275" height="110" as="geometry" />
        </mxCell>
        <mxCell id="mpdO8tZQgs7oVaQ_EQz1-19" value="Extends" style="endArrow=block;endSize=16;endFill=0;html=1;entryX=0;entryY=0.5;entryDx=0;entryDy=0;startArrow=none;exitX=0.998;exitY=0.116;exitDx=0;exitDy=0;exitPerimeter=0;fontSize=20;" edge="1" parent="1" source="mpdO8tZQgs7oVaQ_EQz1-34" target="mpdO8tZQgs7oVaQ_EQz1-72">
          <mxGeometry width="160" relative="1" as="geometry">
            <mxPoint x="228.55999999999995" y="265.53200000000015" as="sourcePoint" />
            <mxPoint x="340.5" y="245.25" as="targetPoint" />
          </mxGeometry>
        </mxCell>
        <mxCell id="mpdO8tZQgs7oVaQ_EQz1-20" value="UsuarioServiceImpl&#xa;&lt;&lt;class&gt;&gt;" style="swimlane;fontStyle=1;align=center;verticalAlign=top;childLayout=stackLayout;horizontal=1;startSize=83;horizontalStack=0;resizeParent=1;resizeParentMax=0;resizeLast=0;collapsible=1;marginBottom=0;fillColor=#FFFFFF;fontSize=28;" vertex="1" parent="1">
          <mxGeometry x="1177.25" y="-313.5" width="502.75" height="275" as="geometry" />
        </mxCell>
        <mxCell id="mpdO8tZQgs7oVaQ_EQz1-21" value="- UsuarioService usuarioService&#xa;- UsuarioServiceDAO usuarioServiceDAO" style="text;strokeColor=none;fillColor=none;align=left;verticalAlign=top;spacingLeft=4;spacingRight=4;overflow=hidden;rotatable=0;points=[[0,0.5],[1,0.5]];portConstraint=eastwest;fontSize=28;" vertex="1" parent="mpdO8tZQgs7oVaQ_EQz1-20">
          <mxGeometry y="83" width="502.75" height="184" as="geometry" />
        </mxCell>
        <mxCell id="mpdO8tZQgs7oVaQ_EQz1-22" value="" style="line;strokeWidth=1;fillColor=none;align=left;verticalAlign=middle;spacingTop=-1;spacingLeft=3;spacingRight=3;rotatable=0;labelPosition=right;points=[];portConstraint=eastwest;" vertex="1" parent="mpdO8tZQgs7oVaQ_EQz1-20">
          <mxGeometry y="267" width="502.75" height="8" as="geometry" />
        </mxCell>
        <mxCell id="mpdO8tZQgs7oVaQ_EQz1-23" value="UsuarioServiceDAO&#xa;&lt;&lt;interface&gt;&gt;" style="swimlane;fontStyle=1;align=center;verticalAlign=top;childLayout=stackLayout;horizontal=1;startSize=86;horizontalStack=0;resizeParent=1;resizeParentMax=0;resizeLast=0;collapsible=1;marginBottom=0;fillColor=#FFFFFF;fontSize=28;" vertex="1" parent="1">
          <mxGeometry x="1177.5" y="219" width="429.5" height="240" as="geometry" />
        </mxCell>
        <mxCell id="mpdO8tZQgs7oVaQ_EQz1-24" value="" style="line;strokeWidth=1;fillColor=none;align=left;verticalAlign=middle;spacingTop=-1;spacingLeft=3;spacingRight=3;rotatable=0;labelPosition=right;points=[];portConstraint=eastwest;" vertex="1" parent="mpdO8tZQgs7oVaQ_EQz1-23">
          <mxGeometry y="86" width="429.5" height="8" as="geometry" />
        </mxCell>
        <mxCell id="mpdO8tZQgs7oVaQ_EQz1-25" value="+ Usuario crearUsuario(Usuario)&#xa;+ Usuario actualizarUsuario(Usuario)" style="text;strokeColor=none;fillColor=none;align=left;verticalAlign=top;spacingLeft=4;spacingRight=4;overflow=hidden;rotatable=0;points=[[0,0.5],[1,0.5]];portConstraint=eastwest;fontSize=25;" vertex="1" parent="mpdO8tZQgs7oVaQ_EQz1-23">
          <mxGeometry y="94" width="429.5" height="146" as="geometry" />
        </mxCell>
        <mxCell id="mpdO8tZQgs7oVaQ_EQz1-26" value="JPARepository&lt;Usuario&gt;&#xa;&lt;&lt;interface&gt;&gt;" style="swimlane;fontStyle=1;align=center;verticalAlign=top;childLayout=stackLayout;horizontal=1;startSize=90;horizontalStack=0;resizeParent=1;resizeParentMax=0;resizeLast=0;collapsible=1;marginBottom=0;fillColor=#67AB9F;fontSize=28;" vertex="1" parent="1">
          <mxGeometry x="1765" y="235" width="425" height="150" as="geometry" />
        </mxCell>
        <mxCell id="mpdO8tZQgs7oVaQ_EQz1-27" value="&lt;span style=&quot;font-size: 35px;&quot;&gt;&lt;b style=&quot;font-size: 35px;&quot;&gt;administracion.usuario&lt;/b&gt;&lt;/span&gt;" style="text;html=1;strokeColor=none;fillColor=none;align=center;verticalAlign=middle;whiteSpace=wrap;rounded=0;fontSize=35;" vertex="1" parent="1">
          <mxGeometry x="32.5" y="-470" width="322.5" height="20" as="geometry" />
        </mxCell>
        <mxCell id="mpdO8tZQgs7oVaQ_EQz1-28" value="" style="endArrow=block;dashed=1;endFill=0;endSize=12;html=1;exitX=1.01;exitY=0.31;exitDx=0;exitDy=0;entryX=0;entryY=0.5;entryDx=0;entryDy=0;exitPerimeter=0;" edge="1" parent="1" source="mpdO8tZQgs7oVaQ_EQz1-21" target="mpdO8tZQgs7oVaQ_EQz1-30">
          <mxGeometry width="160" relative="1" as="geometry">
            <mxPoint x="1731.25" y="-70" as="sourcePoint" />
            <mxPoint x="1721.25" y="-100" as="targetPoint" />
          </mxGeometry>
        </mxCell>
        <mxCell id="mpdO8tZQgs7oVaQ_EQz1-29" value="UsuarioService&#xa;&lt;&lt;interface&gt;&gt;" style="swimlane;fontStyle=1;align=center;verticalAlign=top;childLayout=stackLayout;horizontal=1;startSize=73;horizontalStack=0;resizeParent=1;resizeParentMax=0;resizeLast=0;collapsible=1;marginBottom=0;fillColor=#FFFFFF;fontSize=28;" vertex="1" parent="1">
          <mxGeometry x="1765" y="-268" width="435" height="195" as="geometry" />
        </mxCell>
        <mxCell id="mpdO8tZQgs7oVaQ_EQz1-30" value="- UsuarioServiceDAO chanceService" style="text;strokeColor=none;fillColor=none;align=left;verticalAlign=top;spacingLeft=4;spacingRight=4;overflow=hidden;rotatable=0;points=[[0,0.5],[1,0.5]];portConstraint=eastwest;fontSize=25;" vertex="1" parent="mpdO8tZQgs7oVaQ_EQz1-29">
          <mxGeometry y="73" width="435" height="47" as="geometry" />
        </mxCell>
        <mxCell id="mpdO8tZQgs7oVaQ_EQz1-31" value="" style="line;strokeWidth=1;fillColor=none;align=left;verticalAlign=middle;spacingTop=-1;spacingLeft=3;spacingRight=3;rotatable=0;labelPosition=right;points=[];portConstraint=eastwest;" vertex="1" parent="mpdO8tZQgs7oVaQ_EQz1-29">
          <mxGeometry y="120" width="435" height="8" as="geometry" />
        </mxCell>
        <mxCell id="mpdO8tZQgs7oVaQ_EQz1-32" value="+ UsuarioResponse crearUsuario(UsuarioRequest)&#xa;+ UsuarioResponse actualizarUsuario(UsuarioRequest)" style="text;strokeColor=none;fillColor=none;align=left;verticalAlign=top;spacingLeft=4;spacingRight=4;overflow=hidden;rotatable=0;points=[[0,0.5],[1,0.5]];portConstraint=eastwest;fontSize=25;" vertex="1" parent="mpdO8tZQgs7oVaQ_EQz1-29">
          <mxGeometry y="128" width="435" height="67" as="geometry" />
        </mxCell>
        <mxCell id="mpdO8tZQgs7oVaQ_EQz1-33" value="" style="endArrow=block;dashed=1;endFill=0;endSize=12;html=1;exitX=1.008;exitY=0.378;exitDx=0;exitDy=0;entryX=0;entryY=0.5;entryDx=0;entryDy=0;exitPerimeter=0;" edge="1" parent="1" source="mpdO8tZQgs7oVaQ_EQz1-23" target="mpdO8tZQgs7oVaQ_EQz1-26">
          <mxGeometry width="160" relative="1" as="geometry">
            <mxPoint x="1600.5" y="285" as="sourcePoint" />
            <mxPoint x="1715.5" y="251.8800000000001" as="targetPoint" />
          </mxGeometry>
        </mxCell>
        <mxCell id="mpdO8tZQgs7oVaQ_EQz1-34" value="Usuario&#xa;&lt;&lt;class&gt;&gt;" style="swimlane;fontStyle=1;align=center;verticalAlign=top;childLayout=stackLayout;horizontal=1;startSize=90;horizontalStack=0;resizeParent=1;resizeParentMax=0;resizeLast=0;collapsible=1;marginBottom=0;fillColor=#FFFFFF;fontSize=28;" vertex="1" parent="1">
          <mxGeometry x="45.5" y="210" width="295" height="380" as="geometry" />
        </mxCell>
        <mxCell id="mpdO8tZQgs7oVaQ_EQz1-35" value="- usuario: String&#xa;- clave: String&#xa;- nombre: String&#xa;- apellidos: String&#xa;- identificacion: String&#xa;- idPerfil: BigInteger" style="text;strokeColor=none;fillColor=none;align=left;verticalAlign=top;spacingLeft=4;spacingRight=4;overflow=hidden;rotatable=0;points=[[0,0.5],[1,0.5]];portConstraint=eastwest;fontSize=25;" vertex="1" parent="mpdO8tZQgs7oVaQ_EQz1-34">
          <mxGeometry y="90" width="295" height="210" as="geometry" />
        </mxCell>
        <mxCell id="mpdO8tZQgs7oVaQ_EQz1-36" value="" style="line;strokeWidth=1;fillColor=none;align=left;verticalAlign=middle;spacingTop=-1;spacingLeft=3;spacingRight=3;rotatable=0;labelPosition=right;points=[];portConstraint=eastwest;" vertex="1" parent="mpdO8tZQgs7oVaQ_EQz1-34">
          <mxGeometry y="300" width="295" height="8" as="geometry" />
        </mxCell>
        <mxCell id="mpdO8tZQgs7oVaQ_EQz1-37" value="+ getters()&#xa;+ setter()" style="text;strokeColor=none;fillColor=none;align=left;verticalAlign=top;spacingLeft=4;spacingRight=4;overflow=hidden;rotatable=0;points=[[0,0.5],[1,0.5]];portConstraint=eastwest;fontSize=25;" vertex="1" parent="mpdO8tZQgs7oVaQ_EQz1-34">
          <mxGeometry y="308" width="295" height="72" as="geometry" />
        </mxCell>
        <mxCell id="mpdO8tZQgs7oVaQ_EQz1-38" value="" style="shape=folder;tabWidth=900;tabHeight=60;tabPosition=left;strokeWidth=2;html=1;whiteSpace=wrap;align=center;" vertex="1" parent="1">
          <mxGeometry x="-20" y="1360" width="2330" height="1330" as="geometry" />
        </mxCell>
        <mxCell id="mpdO8tZQgs7oVaQ_EQz1-39" value="" style="shape=folder;tabWidth=465;tabHeight=50;tabPosition=left;strokeWidth=2;html=1;whiteSpace=wrap;align=center;" vertex="1" parent="1">
          <mxGeometry x="5" y="1550" width="945" height="330" as="geometry" />
        </mxCell>
        <mxCell id="mpdO8tZQgs7oVaQ_EQz1-40" value="&lt;b style=&quot;font-size: 35px;&quot;&gt;&lt;font style=&quot;font-size: 35px;&quot;&gt;controller&lt;/font&gt;&lt;/b&gt;" style="text;html=1;strokeColor=none;fillColor=none;align=center;verticalAlign=middle;whiteSpace=wrap;rounded=0;fontSize=35;" vertex="1" parent="1">
          <mxGeometry x="75" y="1560" width="40" height="20" as="geometry" />
        </mxCell>
        <mxCell id="mpdO8tZQgs7oVaQ_EQz1-41" value="" style="shape=folder;tabWidth=465;tabHeight=45;tabPosition=left;strokeWidth=2;html=1;whiteSpace=wrap;align=center;" vertex="1" parent="1">
          <mxGeometry x="5" y="1935" width="945" height="725" as="geometry" />
        </mxCell>
        <mxCell id="mpdO8tZQgs7oVaQ_EQz1-42" value="&lt;b style=&quot;font-size: 35px;&quot;&gt;&lt;font style=&quot;font-size: 35px;&quot;&gt;model&lt;/font&gt;&lt;/b&gt;" style="text;html=1;strokeColor=none;fillColor=none;align=center;verticalAlign=middle;whiteSpace=wrap;rounded=0;fontSize=35;" vertex="1" parent="1">
          <mxGeometry x="15" y="1950" width="125" height="20" as="geometry" />
        </mxCell>
        <mxCell id="mpdO8tZQgs7oVaQ_EQz1-43" value="" style="shape=folder;tabWidth=460;tabHeight=50;tabPosition=left;strokeWidth=2;html=1;whiteSpace=wrap;align=center;" vertex="1" parent="1">
          <mxGeometry x="1092.5" y="1550" width="1157.5" height="330" as="geometry" />
        </mxCell>
        <mxCell id="mpdO8tZQgs7oVaQ_EQz1-44" value="&lt;b style=&quot;font-size: 35px;&quot;&gt;&lt;font style=&quot;font-size: 35px;&quot;&gt;service&lt;/font&gt;&lt;/b&gt;" style="text;html=1;strokeColor=none;fillColor=none;align=center;verticalAlign=middle;whiteSpace=wrap;rounded=0;fontSize=35;" vertex="1" parent="1">
          <mxGeometry x="1125" y="1570" width="117.5" height="20" as="geometry" />
        </mxCell>
        <mxCell id="mpdO8tZQgs7oVaQ_EQz1-45" value="" style="shape=folder;tabWidth=470;tabHeight=35;tabPosition=left;strokeWidth=2;html=1;whiteSpace=wrap;align=center;" vertex="1" parent="1">
          <mxGeometry x="1092.5" y="1935" width="1157.5" height="280" as="geometry" />
        </mxCell>
        <mxCell id="mpdO8tZQgs7oVaQ_EQz1-46" value="&lt;b style=&quot;font-size: 35px;&quot;&gt;&lt;font style=&quot;font-size: 35px;&quot;&gt;dao&lt;/font&gt;&lt;/b&gt;" style="text;html=1;strokeColor=none;fillColor=none;align=center;verticalAlign=middle;whiteSpace=wrap;rounded=0;fontSize=35;" vertex="1" parent="1">
          <mxGeometry x="1125" y="1941" width="40" height="20" as="geometry" />
        </mxCell>
        <mxCell id="mpdO8tZQgs7oVaQ_EQz1-47" value="Extends" style="endArrow=block;endSize=16;endFill=0;html=1;entryX=0;entryY=0.5;entryDx=0;entryDy=0;exitX=1;exitY=0.5;exitDx=0;exitDy=0;startArrow=none;" edge="1" parent="1" source="mpdO8tZQgs7oVaQ_EQz1-64" target="mpdO8tZQgs7oVaQ_EQz1-48">
          <mxGeometry width="160" relative="1" as="geometry">
            <mxPoint x="198.05999999999995" y="2080.282" as="sourcePoint" />
            <mxPoint x="326" y="2051.5" as="targetPoint" />
          </mxGeometry>
        </mxCell>
        <mxCell id="mpdO8tZQgs7oVaQ_EQz1-48" value="EntidadGeneral&#xa;&lt;&lt;class&gt;&gt;" style="swimlane;fontStyle=1;align=center;verticalAlign=top;childLayout=stackLayout;horizontal=1;startSize=76;horizontalStack=0;resizeParent=1;resizeParentMax=0;resizeLast=0;collapsible=1;marginBottom=0;fillColor=#67AB9F;fontSize=28;" vertex="1" parent="1">
          <mxGeometry x="573" y="2134.12" width="349.5" height="126.25" as="geometry" />
        </mxCell>
        <mxCell id="mpdO8tZQgs7oVaQ_EQz1-49" value="RegistroServiceImpl&#xa;&lt;&lt;class&gt;&gt;" style="swimlane;fontStyle=1;align=center;verticalAlign=top;childLayout=stackLayout;horizontal=1;startSize=79;horizontalStack=0;resizeParent=1;resizeParentMax=0;resizeLast=0;collapsible=1;marginBottom=0;fillColor=#FFFFFF;fontSize=28;" vertex="1" parent="1">
          <mxGeometry x="1145" y="1631.5" width="455" height="198" as="geometry" />
        </mxCell>
        <mxCell id="mpdO8tZQgs7oVaQ_EQz1-50" value="- RegistroService registroService&#xa;- RegistroServiceDAO registroServiceDAO" style="text;strokeColor=none;fillColor=none;align=left;verticalAlign=top;spacingLeft=4;spacingRight=4;overflow=hidden;rotatable=0;points=[[0,0.5],[1,0.5]];portConstraint=eastwest;fontSize=25;" vertex="1" parent="mpdO8tZQgs7oVaQ_EQz1-49">
          <mxGeometry y="79" width="455" height="111" as="geometry" />
        </mxCell>
        <mxCell id="mpdO8tZQgs7oVaQ_EQz1-51" value="" style="line;strokeWidth=1;fillColor=none;align=left;verticalAlign=middle;spacingTop=-1;spacingLeft=3;spacingRight=3;rotatable=0;labelPosition=right;points=[];portConstraint=eastwest;" vertex="1" parent="mpdO8tZQgs7oVaQ_EQz1-49">
          <mxGeometry y="190" width="455" height="8" as="geometry" />
        </mxCell>
        <mxCell id="mpdO8tZQgs7oVaQ_EQz1-52" value="RegistroServiceDAO&#xa;&lt;&lt;interface&gt;&gt;" style="swimlane;fontStyle=1;align=center;verticalAlign=top;childLayout=stackLayout;horizontal=1;startSize=70;horizontalStack=0;resizeParent=1;resizeParentMax=0;resizeLast=0;collapsible=1;marginBottom=0;fillColor=#FFFFFF;fontSize=28;" vertex="1" parent="1">
          <mxGeometry x="1142.5" y="2000" width="457.5" height="160" as="geometry" />
        </mxCell>
        <mxCell id="mpdO8tZQgs7oVaQ_EQz1-53" value="" style="line;strokeWidth=1;fillColor=none;align=left;verticalAlign=middle;spacingTop=-1;spacingLeft=3;spacingRight=3;rotatable=0;labelPosition=right;points=[];portConstraint=eastwest;" vertex="1" parent="mpdO8tZQgs7oVaQ_EQz1-52">
          <mxGeometry y="70" width="457.5" height="8" as="geometry" />
        </mxCell>
        <mxCell id="mpdO8tZQgs7oVaQ_EQz1-54" value="+ UserInfoBiometric almacenarDatosBiometricos(UserInfoBiometric )&#xa;+ UserInfoBiometric actualizarDatosBiometricos(UserInfoBiometric )" style="text;strokeColor=none;fillColor=none;align=left;verticalAlign=top;spacingLeft=4;spacingRight=4;overflow=hidden;rotatable=0;points=[[0,0.5],[1,0.5]];portConstraint=eastwest;fontSize=25;" vertex="1" parent="mpdO8tZQgs7oVaQ_EQz1-52">
          <mxGeometry y="78" width="457.5" height="82" as="geometry" />
        </mxCell>
        <mxCell id="mpdO8tZQgs7oVaQ_EQz1-55" value="JPARepository&lt;UserInfoBiometric&gt;&#xa;&lt;&lt;interface&gt;&gt;" style="swimlane;fontStyle=1;align=center;verticalAlign=top;childLayout=stackLayout;horizontal=1;startSize=76;horizontalStack=0;resizeParent=1;resizeParentMax=0;resizeLast=0;collapsible=1;marginBottom=0;fillColor=#67AB9F;fontSize=28;" vertex="1" parent="1">
          <mxGeometry x="1720" y="2010" width="490" height="146" as="geometry" />
        </mxCell>
        <mxCell id="mpdO8tZQgs7oVaQ_EQz1-56" value="&lt;span style=&quot;font-size: 35px;&quot;&gt;&lt;b style=&quot;font-size: 35px;&quot;&gt;autenticacion.registro&lt;/b&gt;&lt;/span&gt;" style="text;html=1;strokeColor=none;fillColor=none;align=center;verticalAlign=middle;whiteSpace=wrap;rounded=0;fontSize=35;" vertex="1" parent="1">
          <mxGeometry x="2.5" y="1380" width="360" height="20" as="geometry" />
        </mxCell>
        <mxCell id="mpdO8tZQgs7oVaQ_EQz1-57" value="" style="endArrow=block;dashed=1;endFill=0;endSize=12;html=1;entryX=0;entryY=0.545;entryDx=0;entryDy=0;entryPerimeter=0;exitX=1;exitY=0.5;exitDx=0;exitDy=0;" edge="1" parent="1" source="mpdO8tZQgs7oVaQ_EQz1-50" target="mpdO8tZQgs7oVaQ_EQz1-60">
          <mxGeometry width="160" relative="1" as="geometry">
            <mxPoint x="1402.5" y="1748" as="sourcePoint" />
            <mxPoint x="1490" y="1747.5" as="targetPoint" />
          </mxGeometry>
        </mxCell>
        <mxCell id="mpdO8tZQgs7oVaQ_EQz1-58" value="RegistroService&#xa;&lt;&lt;interface&gt;&gt;" style="swimlane;fontStyle=1;align=center;verticalAlign=top;childLayout=stackLayout;horizontal=1;startSize=80;horizontalStack=0;resizeParent=1;resizeParentMax=0;resizeLast=0;collapsible=1;marginBottom=0;fillColor=#FFFFFF;fontSize=28;" vertex="1" parent="1">
          <mxGeometry x="1720" y="1628" width="490" height="218" as="geometry" />
        </mxCell>
        <mxCell id="mpdO8tZQgs7oVaQ_EQz1-59" value="- ChanceService chanceService" style="text;strokeColor=none;fillColor=none;align=left;verticalAlign=top;spacingLeft=4;spacingRight=4;overflow=hidden;rotatable=0;points=[[0,0.5],[1,0.5]];portConstraint=eastwest;fontSize=25;" vertex="1" parent="mpdO8tZQgs7oVaQ_EQz1-58">
          <mxGeometry y="80" width="490" height="50" as="geometry" />
        </mxCell>
        <mxCell id="mpdO8tZQgs7oVaQ_EQz1-60" value="" style="line;strokeWidth=1;fillColor=none;align=left;verticalAlign=middle;spacingTop=-1;spacingLeft=3;spacingRight=3;rotatable=0;labelPosition=right;points=[];portConstraint=eastwest;" vertex="1" parent="mpdO8tZQgs7oVaQ_EQz1-58">
          <mxGeometry y="130" width="490" height="8" as="geometry" />
        </mxCell>
        <mxCell id="mpdO8tZQgs7oVaQ_EQz1-61" value="+ UsuarioResponse crearUsuario(UsuarioRequest)&#xa;+ UsuarioResponse actualizarUsuario(UsuarioRequest)" style="text;strokeColor=none;fillColor=none;align=left;verticalAlign=top;spacingLeft=4;spacingRight=4;overflow=hidden;rotatable=0;points=[[0,0.5],[1,0.5]];portConstraint=eastwest;fontSize=25;" vertex="1" parent="mpdO8tZQgs7oVaQ_EQz1-58">
          <mxGeometry y="138" width="490" height="80" as="geometry" />
        </mxCell>
        <mxCell id="mpdO8tZQgs7oVaQ_EQz1-62" value="" style="endArrow=block;dashed=1;endFill=0;endSize=12;html=1;exitX=1.016;exitY=0.051;exitDx=0;exitDy=0;entryX=0;entryY=0.5;entryDx=0;entryDy=0;exitPerimeter=0;" edge="1" parent="1" source="mpdO8tZQgs7oVaQ_EQz1-54" target="mpdO8tZQgs7oVaQ_EQz1-55">
          <mxGeometry width="160" relative="1" as="geometry">
            <mxPoint x="1510" y="2045" as="sourcePoint" />
            <mxPoint x="1625" y="2011.88" as="targetPoint" />
          </mxGeometry>
        </mxCell>
        <mxCell id="mpdO8tZQgs7oVaQ_EQz1-63" value="UserInfoBiometric&#xa;&lt;&lt;class&gt;&gt;" style="swimlane;fontStyle=1;align=center;verticalAlign=top;childLayout=stackLayout;horizontal=1;startSize=85;horizontalStack=0;resizeParent=1;resizeParentMax=0;resizeLast=0;collapsible=1;marginBottom=0;fillColor=#FFFFFF;fontSize=28;" vertex="1" parent="1">
          <mxGeometry x="30" y="2024.75" width="440" height="360" as="geometry" />
        </mxCell>
        <mxCell id="mpdO8tZQgs7oVaQ_EQz1-64" value="- idUsuario: String&#xa;- faceId: String&#xa;- externalId: String&#xa;- rutaBucketS3: String&#xa;- nombreArchivo: String" style="text;strokeColor=none;fillColor=none;align=left;verticalAlign=top;spacingLeft=4;spacingRight=4;overflow=hidden;rotatable=0;points=[[0,0.5],[1,0.5]];portConstraint=eastwest;fontSize=25;" vertex="1" parent="mpdO8tZQgs7oVaQ_EQz1-63">
          <mxGeometry y="85" width="440" height="175" as="geometry" />
        </mxCell>
        <mxCell id="mpdO8tZQgs7oVaQ_EQz1-65" value="" style="line;strokeWidth=1;fillColor=none;align=left;verticalAlign=middle;spacingTop=-1;spacingLeft=3;spacingRight=3;rotatable=0;labelPosition=right;points=[];portConstraint=eastwest;" vertex="1" parent="mpdO8tZQgs7oVaQ_EQz1-63">
          <mxGeometry y="260" width="440" height="8" as="geometry" />
        </mxCell>
        <mxCell id="mpdO8tZQgs7oVaQ_EQz1-66" value="+ getters()&#xa;+ setter()" style="text;strokeColor=none;fillColor=none;align=left;verticalAlign=top;spacingLeft=4;spacingRight=4;overflow=hidden;rotatable=0;points=[[0,0.5],[1,0.5]];portConstraint=eastwest;fontSize=25;" vertex="1" parent="mpdO8tZQgs7oVaQ_EQz1-63">
          <mxGeometry y="268" width="440" height="92" as="geometry" />
        </mxCell>
        <mxCell id="mpdO8tZQgs7oVaQ_EQz1-67" value="" style="endArrow=block;dashed=1;endFill=0;endSize=12;html=1;exitX=1;exitY=0.25;exitDx=0;exitDy=0;entryX=0;entryY=0.5;entryDx=0;entryDy=0;" edge="1" parent="1" source="mpdO8tZQgs7oVaQ_EQz1-14" target="mpdO8tZQgs7oVaQ_EQz1-18">
          <mxGeometry width="160" relative="1" as="geometry">
            <mxPoint x="1092.5" y="-112.25" as="sourcePoint" />
            <mxPoint x="322.5" y="-119.5" as="targetPoint" />
          </mxGeometry>
        </mxCell>
        <mxCell id="mpdO8tZQgs7oVaQ_EQz1-68" value="RegistroService&#xa;&lt;&lt;interface&gt;&gt;" style="swimlane;fontStyle=1;align=center;verticalAlign=top;childLayout=stackLayout;horizontal=1;startSize=80;horizontalStack=0;resizeParent=1;resizeParentMax=0;resizeLast=0;collapsible=1;marginBottom=0;fillColor=#67AB9F;fontSize=28;" vertex="1" parent="1">
          <mxGeometry x="570" y="1666.88" width="352.5" height="140.25" as="geometry" />
        </mxCell>
        <mxCell id="mpdO8tZQgs7oVaQ_EQz1-69" value="" style="endArrow=block;dashed=1;endFill=0;endSize=12;html=1;entryX=0.001;entryY=0.45;entryDx=0;entryDy=0;entryPerimeter=0;startArrow=none;" edge="1" parent="1" target="mpdO8tZQgs7oVaQ_EQz1-68">
          <mxGeometry width="160" relative="1" as="geometry">
            <mxPoint x="480" y="1730" as="sourcePoint" />
            <mxPoint x="298.72" y="1684" as="targetPoint" />
          </mxGeometry>
        </mxCell>
        <mxCell id="mpdO8tZQgs7oVaQ_EQz1-70" value="" style="endArrow=block;dashed=1;endFill=0;endSize=12;html=1;entryX=0.5;entryY=0;entryDx=0;entryDy=0;exitX=0.428;exitY=0.812;exitDx=0;exitDy=0;exitPerimeter=0;" edge="1" parent="1" source="mpdO8tZQgs7oVaQ_EQz1-22" target="mpdO8tZQgs7oVaQ_EQz1-23">
          <mxGeometry width="160" relative="1" as="geometry">
            <mxPoint x="1410" y="-10" as="sourcePoint" />
            <mxPoint x="1481.25" y="140" as="targetPoint" />
          </mxGeometry>
        </mxCell>
        <mxCell id="mpdO8tZQgs7oVaQ_EQz1-71" value="" style="endArrow=block;dashed=1;endFill=0;endSize=12;html=1;exitX=0.5;exitY=1;exitDx=0;exitDy=0;entryX=0.5;entryY=0;entryDx=0;entryDy=0;" edge="1" parent="1" source="mpdO8tZQgs7oVaQ_EQz1-49" target="mpdO8tZQgs7oVaQ_EQz1-52">
          <mxGeometry width="160" relative="1" as="geometry">
            <mxPoint x="1415" y="1752.25" as="sourcePoint" />
            <mxPoint x="1500" y="1741.5" as="targetPoint" />
          </mxGeometry>
        </mxCell>
        <mxCell id="mpdO8tZQgs7oVaQ_EQz1-72" value="EntidadGeneral&#xa;&lt;&lt;class&gt;&gt;" style="swimlane;fontStyle=1;align=center;verticalAlign=top;childLayout=stackLayout;horizontal=1;startSize=43;horizontalStack=0;resizeParent=1;resizeParentMax=0;resizeLast=0;collapsible=1;marginBottom=0;fillColor=#67AB9F;fontSize=28;" vertex="1" parent="1">
          <mxGeometry x="490" y="210" width="301" height="88.5" as="geometry" />
        </mxCell>
        <mxCell id="mpdO8tZQgs7oVaQ_EQz1-73" value="" style="shape=folder;tabWidth=950;tabHeight=50;tabPosition=left;strokeWidth=2;html=1;whiteSpace=wrap;align=center;" vertex="1" parent="1">
          <mxGeometry x="-20" y="2730" width="2330" height="1590" as="geometry" />
        </mxCell>
        <mxCell id="mpdO8tZQgs7oVaQ_EQz1-74" value="" style="shape=folder;tabWidth=403;tabHeight=40;tabPosition=left;strokeWidth=2;html=1;whiteSpace=wrap;align=center;" vertex="1" parent="1">
          <mxGeometry x="-2.5" y="2820" width="942.5" height="630" as="geometry" />
        </mxCell>
        <mxCell id="mpdO8tZQgs7oVaQ_EQz1-75" value="&lt;b style=&quot;font-size: 35px;&quot;&gt;&lt;font style=&quot;font-size: 35px;&quot;&gt;controller&lt;/font&gt;&lt;/b&gt;" style="text;html=1;strokeColor=none;fillColor=none;align=center;verticalAlign=middle;whiteSpace=wrap;rounded=0;fontSize=35;" vertex="1" parent="1">
          <mxGeometry x="17.5" y="2825" width="162.5" height="20" as="geometry" />
        </mxCell>
        <mxCell id="mpdO8tZQgs7oVaQ_EQz1-76" value="" style="shape=folder;tabWidth=506;tabHeight=60;tabPosition=left;strokeWidth=2;html=1;whiteSpace=wrap;align=center;" vertex="1" parent="1">
          <mxGeometry x="3.75" y="3530" width="936.25" height="690" as="geometry" />
        </mxCell>
        <mxCell id="mpdO8tZQgs7oVaQ_EQz1-77" value="&lt;b style=&quot;font-size: 35px;&quot;&gt;&lt;font style=&quot;font-size: 35px;&quot;&gt;model&lt;/font&gt;&lt;/b&gt;" style="text;html=1;strokeColor=none;fillColor=none;align=center;verticalAlign=middle;whiteSpace=wrap;rounded=0;fontSize=35;" vertex="1" parent="1">
          <mxGeometry x="38.75" y="3550" width="112.5" height="20" as="geometry" />
        </mxCell>
        <mxCell id="mpdO8tZQgs7oVaQ_EQz1-78" value="" style="shape=folder;tabWidth=548;tabHeight=60;tabPosition=left;strokeWidth=2;html=1;whiteSpace=wrap;align=center;" vertex="1" parent="1">
          <mxGeometry x="1092.5" y="2820" width="1157.5" height="630" as="geometry" />
        </mxCell>
        <mxCell id="mpdO8tZQgs7oVaQ_EQz1-79" value="&lt;b style=&quot;font-size: 35px;&quot;&gt;&lt;font style=&quot;font-size: 35px;&quot;&gt;service&lt;/font&gt;&lt;/b&gt;" style="text;html=1;strokeColor=none;fillColor=none;align=center;verticalAlign=middle;whiteSpace=wrap;rounded=0;fontSize=35;" vertex="1" parent="1">
          <mxGeometry x="1123.13" y="2840" width="123.75" height="20" as="geometry" />
        </mxCell>
        <mxCell id="mpdO8tZQgs7oVaQ_EQz1-80" value="AutenticacionController&#xa;&lt;&lt;class&gt;&gt;" style="swimlane;fontStyle=1;align=center;verticalAlign=top;childLayout=stackLayout;horizontal=1;startSize=80;horizontalStack=0;resizeParent=1;resizeParentMax=0;resizeLast=0;collapsible=1;marginBottom=0;fontSize=28;" vertex="1" parent="1">
          <mxGeometry x="35" y="2950" width="435" height="174" as="geometry" />
        </mxCell>
        <mxCell id="mpdO8tZQgs7oVaQ_EQz1-81" value="" style="line;strokeWidth=1;fillColor=none;align=left;verticalAlign=middle;spacingTop=-1;spacingLeft=3;spacingRight=3;rotatable=0;labelPosition=right;points=[];portConstraint=eastwest;" vertex="1" parent="mpdO8tZQgs7oVaQ_EQz1-80">
          <mxGeometry y="80" width="435" height="8" as="geometry" />
        </mxCell>
        <mxCell id="mpdO8tZQgs7oVaQ_EQz1-82" value="+AutenticacionBiometriaRequestResponse &#xa;autenticacionBiometrica (AutenticacionBiometriaRequest)" style="text;strokeColor=none;fillColor=none;align=left;verticalAlign=top;spacingLeft=4;spacingRight=4;overflow=hidden;rotatable=0;points=[[0,0.5],[1,0.5]];portConstraint=eastwest;fontSize=25;" vertex="1" parent="mpdO8tZQgs7oVaQ_EQz1-80">
          <mxGeometry y="88" width="435" height="86" as="geometry" />
        </mxCell>
        <mxCell id="mpdO8tZQgs7oVaQ_EQz1-83" value="Extends" style="endArrow=block;endSize=16;endFill=0;html=1;entryX=0;entryY=0.5;entryDx=0;entryDy=0;exitX=1.017;exitY=0.267;exitDx=0;exitDy=0;exitPerimeter=0;startArrow=none;" edge="1" parent="1" source="mpdO8tZQgs7oVaQ_EQz1-93" target="mpdO8tZQgs7oVaQ_EQz1-84">
          <mxGeometry width="160" relative="1" as="geometry">
            <mxPoint x="201.43999999999994" y="3741.282" as="sourcePoint" />
            <mxPoint x="329.38" y="3712.5" as="targetPoint" />
          </mxGeometry>
        </mxCell>
        <mxCell id="mpdO8tZQgs7oVaQ_EQz1-84" value="EntidadGeneral&#xa;&lt;&lt;class&gt;&gt;" style="swimlane;fontStyle=1;align=center;verticalAlign=top;childLayout=stackLayout;horizontal=1;startSize=80;horizontalStack=0;resizeParent=1;resizeParentMax=0;resizeLast=0;collapsible=1;marginBottom=0;fillColor=#67AB9F;fontSize=28;" vertex="1" parent="1">
          <mxGeometry x="552.75" y="3730" width="357.25" height="120" as="geometry" />
        </mxCell>
        <mxCell id="mpdO8tZQgs7oVaQ_EQz1-85" value="AutenticacionServiceImpl&#xa;&lt;&lt;class&gt;&gt;" style="swimlane;fontStyle=1;align=center;verticalAlign=top;childLayout=stackLayout;horizontal=1;startSize=90;horizontalStack=0;resizeParent=1;resizeParentMax=0;resizeLast=0;collapsible=1;marginBottom=0;fillColor=#FFFFFF;fontSize=28;" vertex="1" parent="1">
          <mxGeometry x="1132.5" y="2970" width="427.5" height="152" as="geometry" />
        </mxCell>
        <mxCell id="mpdO8tZQgs7oVaQ_EQz1-86" value="- RegistroService registroService&#xa;" style="text;strokeColor=none;fillColor=none;align=left;verticalAlign=top;spacingLeft=4;spacingRight=4;overflow=hidden;rotatable=0;points=[[0,0.5],[1,0.5]];portConstraint=eastwest;fontSize=25;" vertex="1" parent="mpdO8tZQgs7oVaQ_EQz1-85">
          <mxGeometry y="90" width="427.5" height="54" as="geometry" />
        </mxCell>
        <mxCell id="mpdO8tZQgs7oVaQ_EQz1-87" value="" style="line;strokeWidth=1;fillColor=none;align=left;verticalAlign=middle;spacingTop=-1;spacingLeft=3;spacingRight=3;rotatable=0;labelPosition=right;points=[];portConstraint=eastwest;" vertex="1" parent="mpdO8tZQgs7oVaQ_EQz1-85">
          <mxGeometry y="144" width="427.5" height="8" as="geometry" />
        </mxCell>
        <mxCell id="mpdO8tZQgs7oVaQ_EQz1-88" value="&lt;span style=&quot;font-size: 35px;&quot;&gt;&lt;b style=&quot;font-size: 35px;&quot;&gt;autenticacion.autenticacion&lt;/b&gt;&lt;/span&gt;" style="text;html=1;strokeColor=none;fillColor=none;align=center;verticalAlign=middle;whiteSpace=wrap;rounded=0;fontSize=35;" vertex="1" parent="1">
          <mxGeometry x="3.5" y="2740" width="468" height="20" as="geometry" />
        </mxCell>
        <mxCell id="mpdO8tZQgs7oVaQ_EQz1-89" value="" style="endArrow=block;dashed=1;endFill=0;endSize=12;html=1;entryX=0;entryY=0.25;entryDx=0;entryDy=0;exitX=1;exitY=0.5;exitDx=0;exitDy=0;" edge="1" parent="1" source="mpdO8tZQgs7oVaQ_EQz1-85" target="mpdO8tZQgs7oVaQ_EQz1-90">
          <mxGeometry width="160" relative="1" as="geometry">
            <mxPoint x="1520" y="3043" as="sourcePoint" />
            <mxPoint x="1490" y="3038.25" as="targetPoint" />
          </mxGeometry>
        </mxCell>
        <mxCell id="mpdO8tZQgs7oVaQ_EQz1-90" value="AutenticacionService&#xa;&lt;&lt;interface&gt;&gt;" style="swimlane;fontStyle=1;align=center;verticalAlign=top;childLayout=stackLayout;horizontal=1;startSize=107;horizontalStack=0;resizeParent=1;resizeParentMax=0;resizeLast=0;collapsible=1;marginBottom=0;fillColor=#FFFFFF;fontSize=28;" vertex="1" parent="1">
          <mxGeometry x="1666.5" y="2970" width="553.5" height="280" as="geometry" />
        </mxCell>
        <mxCell id="mpdO8tZQgs7oVaQ_EQz1-91" value="" style="line;strokeWidth=1;fillColor=none;align=left;verticalAlign=middle;spacingTop=-1;spacingLeft=3;spacingRight=3;rotatable=0;labelPosition=right;points=[];portConstraint=eastwest;" vertex="1" parent="mpdO8tZQgs7oVaQ_EQz1-90">
          <mxGeometry y="107" width="553.5" height="8" as="geometry" />
        </mxCell>
        <mxCell id="mpdO8tZQgs7oVaQ_EQz1-92" value="+ AutenticacionBiometriaRequestResponse &#xa;autenticacionBiometrica (AutenticacionBiometriaRequest)" style="text;strokeColor=none;fillColor=none;align=left;verticalAlign=top;spacingLeft=4;spacingRight=4;overflow=hidden;rotatable=0;points=[[0,0.5],[1,0.5]];portConstraint=eastwest;fontSize=25;" vertex="1" parent="mpdO8tZQgs7oVaQ_EQz1-90">
          <mxGeometry y="115" width="553.5" height="165" as="geometry" />
        </mxCell>
        <mxCell id="mpdO8tZQgs7oVaQ_EQz1-93" value="UserInfoBiometric&#xa;&lt;&lt;class&gt;&gt;" style="swimlane;fontStyle=1;align=center;verticalAlign=top;childLayout=stackLayout;horizontal=1;startSize=80;horizontalStack=0;resizeParent=1;resizeParentMax=0;resizeLast=0;collapsible=1;marginBottom=0;fillColor=#FFFFFF;fontSize=28;" vertex="1" parent="1">
          <mxGeometry x="44.63" y="3691" width="380" height="368" as="geometry" />
        </mxCell>
        <mxCell id="mpdO8tZQgs7oVaQ_EQz1-94" value="- idUsuario: String&#xa;- faceId: String&#xa;- externalId: String&#xa;- rutaBucketS3: String&#xa;- nombreArchivo: String" style="text;strokeColor=none;fillColor=none;align=left;verticalAlign=top;spacingLeft=4;spacingRight=4;overflow=hidden;rotatable=0;points=[[0,0.5],[1,0.5]];portConstraint=eastwest;fontSize=25;" vertex="1" parent="mpdO8tZQgs7oVaQ_EQz1-93">
          <mxGeometry y="80" width="380" height="200" as="geometry" />
        </mxCell>
        <mxCell id="mpdO8tZQgs7oVaQ_EQz1-95" value="" style="line;strokeWidth=1;fillColor=none;align=left;verticalAlign=middle;spacingTop=-1;spacingLeft=3;spacingRight=3;rotatable=0;labelPosition=right;points=[];portConstraint=eastwest;" vertex="1" parent="mpdO8tZQgs7oVaQ_EQz1-93">
          <mxGeometry y="280" width="380" height="8" as="geometry" />
        </mxCell>
        <mxCell id="mpdO8tZQgs7oVaQ_EQz1-96" value="+ getters()&#xa;+ setter()" style="text;strokeColor=none;fillColor=none;align=left;verticalAlign=top;spacingLeft=4;spacingRight=4;overflow=hidden;rotatable=0;points=[[0,0.5],[1,0.5]];portConstraint=eastwest;fontSize=25;" vertex="1" parent="mpdO8tZQgs7oVaQ_EQz1-93">
          <mxGeometry y="288" width="380" height="80" as="geometry" />
        </mxCell>
        <mxCell id="mpdO8tZQgs7oVaQ_EQz1-97" value="AutenticacionService&#xa;&lt;&lt;interface&gt;&gt;" style="swimlane;fontStyle=1;align=center;verticalAlign=top;childLayout=stackLayout;horizontal=1;startSize=79;horizontalStack=0;resizeParent=1;resizeParentMax=0;resizeLast=0;collapsible=1;marginBottom=0;fillColor=#67AB9F;fontSize=28;" vertex="1" parent="1">
          <mxGeometry x="540" y="2993" width="367.5" height="129" as="geometry" />
        </mxCell>
        <mxCell id="mpdO8tZQgs7oVaQ_EQz1-98" value="" style="endArrow=block;dashed=1;endFill=0;endSize=12;html=1;entryX=0.001;entryY=0.361;entryDx=0;entryDy=0;exitX=1.015;exitY=0.038;exitDx=0;exitDy=0;exitPerimeter=0;entryPerimeter=0;" edge="1" parent="1" source="mpdO8tZQgs7oVaQ_EQz1-82" target="mpdO8tZQgs7oVaQ_EQz1-97">
          <mxGeometry width="160" relative="1" as="geometry">
            <mxPoint x="247.5" y="3007" as="sourcePoint" />
            <mxPoint x="308.72" y="3008.5" as="targetPoint" />
          </mxGeometry>
        </mxCell>
        <mxCell id="mpdO8tZQgs7oVaQ_EQz1-99" value="" style="shape=folder;tabWidth=591;tabHeight=65;tabPosition=left;strokeWidth=2;html=1;whiteSpace=wrap;align=center;" vertex="1" parent="1">
          <mxGeometry x="1098.75" y="3525" width="1151.25" height="695" as="geometry" />
        </mxCell>
        <mxCell id="mpdO8tZQgs7oVaQ_EQz1-100" value="&lt;b style=&quot;font-size: 35px;&quot;&gt;&lt;font style=&quot;font-size: 35px;&quot;&gt;beans&lt;/font&gt;&lt;/b&gt;" style="text;html=1;strokeColor=none;fillColor=none;align=center;verticalAlign=middle;whiteSpace=wrap;rounded=0;fontSize=35;" vertex="1" parent="1">
          <mxGeometry x="1135" y="3550" width="100" height="20" as="geometry" />
        </mxCell>
        <mxCell id="mpdO8tZQgs7oVaQ_EQz1-101" value="RegistroController&#xa;&lt;&lt;class&gt;&gt;" style="swimlane;fontStyle=1;align=center;verticalAlign=top;childLayout=stackLayout;horizontal=1;startSize=80;horizontalStack=0;resizeParent=1;resizeParentMax=0;resizeLast=0;collapsible=1;marginBottom=0;fillColor=#FFFFFF;fontSize=28;" vertex="1" parent="1">
          <mxGeometry x="35" y="1620" width="445" height="230" as="geometry" />
        </mxCell>
        <mxCell id="mpdO8tZQgs7oVaQ_EQz1-102" value="- RegistroService registroService" style="text;strokeColor=none;fillColor=none;align=left;verticalAlign=top;spacingLeft=4;spacingRight=4;overflow=hidden;rotatable=0;points=[[0,0.5],[1,0.5]];portConstraint=eastwest;fontSize=25;" vertex="1" parent="mpdO8tZQgs7oVaQ_EQz1-101">
          <mxGeometry y="80" width="445" height="45" as="geometry" />
        </mxCell>
        <mxCell id="mpdO8tZQgs7oVaQ_EQz1-103" value="" style="line;strokeWidth=1;fillColor=none;align=left;verticalAlign=middle;spacingTop=-1;spacingLeft=3;spacingRight=3;rotatable=0;labelPosition=right;points=[];portConstraint=eastwest;" vertex="1" parent="mpdO8tZQgs7oVaQ_EQz1-101">
          <mxGeometry y="125" width="445" height="8" as="geometry" />
        </mxCell>
        <mxCell id="mpdO8tZQgs7oVaQ_EQz1-104" value="+ UserInfoBiometricResponse &#xa;    registrarDatosBiometricos (UserInfoBiometricRequest )" style="text;strokeColor=none;fillColor=none;align=left;verticalAlign=top;spacingLeft=4;spacingRight=4;overflow=hidden;rotatable=0;points=[[0,0.5],[1,0.5]];portConstraint=eastwest;fontSize=25;" vertex="1" parent="mpdO8tZQgs7oVaQ_EQz1-101">
          <mxGeometry y="133" width="445" height="97" as="geometry" />
        </mxCell>
        <mxCell id="mpdO8tZQgs7oVaQ_EQz1-105" value="" style="shape=folder;tabWidth=468;tabHeight=45;tabPosition=left;strokeWidth=2;html=1;whiteSpace=wrap;align=center;" vertex="1" parent="1">
          <mxGeometry x="1095" y="2265" width="1155" height="395" as="geometry" />
        </mxCell>
        <mxCell id="mpdO8tZQgs7oVaQ_EQz1-106" value="&lt;b style=&quot;font-size: 35px;&quot;&gt;&lt;font style=&quot;font-size: 35px;&quot;&gt;beans&lt;/font&gt;&lt;/b&gt;" style="text;html=1;strokeColor=none;fillColor=none;align=center;verticalAlign=middle;whiteSpace=wrap;rounded=0;fontSize=35;" vertex="1" parent="1">
          <mxGeometry x="1137.5" y="2280" width="40" height="20" as="geometry" />
        </mxCell>
        <mxCell id="mpdO8tZQgs7oVaQ_EQz1-107" value="AutenticacionBiometriaRequest&#xa;&lt;&lt;class&gt;&gt;" style="swimlane;fontStyle=1;align=center;verticalAlign=top;childLayout=stackLayout;horizontal=1;startSize=85;horizontalStack=0;resizeParent=1;resizeParentMax=0;resizeLast=0;collapsible=1;marginBottom=0;fillColor=#FFFFFF;fontSize=28;" vertex="1" parent="1">
          <mxGeometry x="1145" y="2344.75" width="445" height="250" as="geometry" />
        </mxCell>
        <mxCell id="mpdO8tZQgs7oVaQ_EQz1-108" value="- idUsuario: String&#xa;- fotografia: String" style="text;strokeColor=none;fillColor=none;align=left;verticalAlign=top;spacingLeft=4;spacingRight=4;overflow=hidden;rotatable=0;points=[[0,0.5],[1,0.5]];portConstraint=eastwest;fontSize=25;" vertex="1" parent="mpdO8tZQgs7oVaQ_EQz1-107">
          <mxGeometry y="85" width="445" height="85" as="geometry" />
        </mxCell>
        <mxCell id="mpdO8tZQgs7oVaQ_EQz1-109" value="" style="line;strokeWidth=1;fillColor=none;align=left;verticalAlign=middle;spacingTop=-1;spacingLeft=3;spacingRight=3;rotatable=0;labelPosition=right;points=[];portConstraint=eastwest;" vertex="1" parent="mpdO8tZQgs7oVaQ_EQz1-107">
          <mxGeometry y="170" width="445" height="8" as="geometry" />
        </mxCell>
        <mxCell id="mpdO8tZQgs7oVaQ_EQz1-110" value="+ getters()&#xa;+ setter()" style="text;strokeColor=none;fillColor=none;align=left;verticalAlign=top;spacingLeft=4;spacingRight=4;overflow=hidden;rotatable=0;points=[[0,0.5],[1,0.5]];portConstraint=eastwest;fontSize=25;" vertex="1" parent="mpdO8tZQgs7oVaQ_EQz1-107">
          <mxGeometry y="178" width="445" height="72" as="geometry" />
        </mxCell>
        <mxCell id="mpdO8tZQgs7oVaQ_EQz1-111" value="AutenticacionBiometriaRequestResponse&#xa;&lt;&lt;class&gt;&gt;" style="swimlane;fontStyle=1;align=center;verticalAlign=top;childLayout=stackLayout;horizontal=1;startSize=75;horizontalStack=0;resizeParent=1;resizeParentMax=0;resizeLast=0;collapsible=1;marginBottom=0;fillColor=#FFFFFF;fontSize=28;" vertex="1" parent="1">
          <mxGeometry x="1654" y="2344.75" width="565" height="280" as="geometry" />
        </mxCell>
        <mxCell id="mpdO8tZQgs7oVaQ_EQz1-112" value="- rostroId: String&#xa;- externalId: String&#xa;- fotografia: String" style="text;strokeColor=none;fillColor=none;align=left;verticalAlign=top;spacingLeft=4;spacingRight=4;overflow=hidden;rotatable=0;points=[[0,0.5],[1,0.5]];portConstraint=eastwest;fontSize=25;" vertex="1" parent="mpdO8tZQgs7oVaQ_EQz1-111">
          <mxGeometry y="75" width="565" height="105" as="geometry" />
        </mxCell>
        <mxCell id="mpdO8tZQgs7oVaQ_EQz1-113" value="" style="line;strokeWidth=1;fillColor=none;align=left;verticalAlign=middle;spacingTop=-1;spacingLeft=3;spacingRight=3;rotatable=0;labelPosition=right;points=[];portConstraint=eastwest;" vertex="1" parent="mpdO8tZQgs7oVaQ_EQz1-111">
          <mxGeometry y="180" width="565" height="8" as="geometry" />
        </mxCell>
        <mxCell id="mpdO8tZQgs7oVaQ_EQz1-114" value="+ getters()&#xa;+ setter()" style="text;strokeColor=none;fillColor=none;align=left;verticalAlign=top;spacingLeft=4;spacingRight=4;overflow=hidden;rotatable=0;points=[[0,0.5],[1,0.5]];portConstraint=eastwest;fontSize=25;" vertex="1" parent="mpdO8tZQgs7oVaQ_EQz1-111">
          <mxGeometry y="188" width="565" height="92" as="geometry" />
        </mxCell>
        <mxCell id="mpdO8tZQgs7oVaQ_EQz1-115" value="" style="shape=folder;tabWidth=470;tabHeight=50;tabPosition=left;strokeWidth=2;html=1;whiteSpace=wrap;align=center;" vertex="1" parent="1">
          <mxGeometry x="1100" y="660" width="1150" height="567" as="geometry" />
        </mxCell>
        <mxCell id="mpdO8tZQgs7oVaQ_EQz1-116" value="&lt;b style=&quot;font-size: 35px;&quot;&gt;&lt;font style=&quot;font-size: 35px;&quot;&gt;beans&lt;/font&gt;&lt;/b&gt;" style="text;html=1;strokeColor=none;fillColor=none;align=center;verticalAlign=middle;whiteSpace=wrap;rounded=0;fontSize=35;" vertex="1" parent="1">
          <mxGeometry x="1357.5" y="677" width="40" height="20" as="geometry" />
        </mxCell>
        <mxCell id="mpdO8tZQgs7oVaQ_EQz1-117" value="UsuarioResponse &#xa;&lt;&lt;class&gt;&gt;" style="swimlane;fontStyle=1;align=center;verticalAlign=top;childLayout=stackLayout;horizontal=1;startSize=87;horizontalStack=0;resizeParent=1;resizeParentMax=0;resizeLast=0;collapsible=1;marginBottom=0;fillColor=#FFFFFF;fontSize=28;" vertex="1" parent="1">
          <mxGeometry x="1180" y="770" width="420" height="260" as="geometry" />
        </mxCell>
        <mxCell id="mpdO8tZQgs7oVaQ_EQz1-118" value="- usuario: String &#xa;- activo: boolean " style="text;strokeColor=none;fillColor=none;align=left;verticalAlign=top;spacingLeft=4;spacingRight=4;overflow=hidden;rotatable=0;points=[[0,0.5],[1,0.5]];portConstraint=eastwest;fontSize=25;" vertex="1" parent="mpdO8tZQgs7oVaQ_EQz1-117">
          <mxGeometry y="87" width="420" height="83" as="geometry" />
        </mxCell>
        <mxCell id="mpdO8tZQgs7oVaQ_EQz1-119" value="" style="line;strokeWidth=1;fillColor=none;align=left;verticalAlign=middle;spacingTop=-1;spacingLeft=3;spacingRight=3;rotatable=0;labelPosition=right;points=[];portConstraint=eastwest;" vertex="1" parent="mpdO8tZQgs7oVaQ_EQz1-117">
          <mxGeometry y="170" width="420" height="8" as="geometry" />
        </mxCell>
        <mxCell id="mpdO8tZQgs7oVaQ_EQz1-120" value="+ getters()&#xa;+ setter()" style="text;strokeColor=none;fillColor=none;align=left;verticalAlign=top;spacingLeft=4;spacingRight=4;overflow=hidden;rotatable=0;points=[[0,0.5],[1,0.5]];portConstraint=eastwest;fontSize=25;" vertex="1" parent="mpdO8tZQgs7oVaQ_EQz1-117">
          <mxGeometry y="178" width="420" height="82" as="geometry" />
        </mxCell>
        <mxCell id="mpdO8tZQgs7oVaQ_EQz1-121" value="UsuarioRequest&#xa;&lt;&lt;class&gt;&gt;" style="swimlane;fontStyle=1;align=center;verticalAlign=top;childLayout=stackLayout;horizontal=1;startSize=77;horizontalStack=0;resizeParent=1;resizeParentMax=0;resizeLast=0;collapsible=1;marginBottom=0;fillColor=#FFFFFF;fontSize=28;" vertex="1" parent="1">
          <mxGeometry x="1740" y="770" width="310" height="400" as="geometry" />
        </mxCell>
        <mxCell id="mpdO8tZQgs7oVaQ_EQz1-122" value="- usuario: String&#xa;- clave: String&#xa;- nombre: String&#xa;- apellido: String&#xa;- identificación: String&#xa;- idPerfil: BigInteger" style="text;strokeColor=none;fillColor=none;align=left;verticalAlign=top;spacingLeft=4;spacingRight=4;overflow=hidden;rotatable=0;points=[[0,0.5],[1,0.5]];portConstraint=eastwest;fontSize=25;" vertex="1" parent="mpdO8tZQgs7oVaQ_EQz1-121">
          <mxGeometry y="77" width="310" height="213" as="geometry" />
        </mxCell>
        <mxCell id="mpdO8tZQgs7oVaQ_EQz1-123" value="" style="line;strokeWidth=1;fillColor=none;align=left;verticalAlign=middle;spacingTop=-1;spacingLeft=3;spacingRight=3;rotatable=0;labelPosition=right;points=[];portConstraint=eastwest;" vertex="1" parent="mpdO8tZQgs7oVaQ_EQz1-121">
          <mxGeometry y="290" width="310" height="8" as="geometry" />
        </mxCell>
        <mxCell id="mpdO8tZQgs7oVaQ_EQz1-124" value="+ getters()&#xa;+ setter()" style="text;strokeColor=none;fillColor=none;align=left;verticalAlign=top;spacingLeft=4;spacingRight=4;overflow=hidden;rotatable=0;points=[[0,0.5],[1,0.5]];portConstraint=eastwest;fontSize=25;" vertex="1" parent="mpdO8tZQgs7oVaQ_EQz1-121">
          <mxGeometry y="298" width="310" height="102" as="geometry" />
        </mxCell>
        <mxCell id="mpdO8tZQgs7oVaQ_EQz1-125" value="AutenticacionBiometriaRequest&#xa;&lt;&lt;class&gt;&gt;" style="swimlane;fontStyle=1;align=center;verticalAlign=top;childLayout=stackLayout;horizontal=1;startSize=90;horizontalStack=0;resizeParent=1;resizeParentMax=0;resizeLast=0;collapsible=1;marginBottom=0;fillColor=#FFFFFF;fontSize=28;" vertex="1" parent="1">
          <mxGeometry x="1132.5" y="3660" width="447.5" height="281" as="geometry" />
        </mxCell>
        <mxCell id="mpdO8tZQgs7oVaQ_EQz1-126" value="- idUsuario: String&#xa;- fotografia: String" style="text;strokeColor=none;fillColor=none;align=left;verticalAlign=top;spacingLeft=4;spacingRight=4;overflow=hidden;rotatable=0;points=[[0,0.5],[1,0.5]];portConstraint=eastwest;fontSize=25;" vertex="1" parent="mpdO8tZQgs7oVaQ_EQz1-125">
          <mxGeometry y="90" width="447.5" height="90" as="geometry" />
        </mxCell>
        <mxCell id="mpdO8tZQgs7oVaQ_EQz1-127" value="" style="line;strokeWidth=1;fillColor=none;align=left;verticalAlign=middle;spacingTop=-1;spacingLeft=3;spacingRight=3;rotatable=0;labelPosition=right;points=[];portConstraint=eastwest;fontSize=28;" vertex="1" parent="mpdO8tZQgs7oVaQ_EQz1-125">
          <mxGeometry y="180" width="447.5" height="8" as="geometry" />
        </mxCell>
        <mxCell id="mpdO8tZQgs7oVaQ_EQz1-128" value="+ getters()&#xa;+ setter()" style="text;strokeColor=none;fillColor=none;align=left;verticalAlign=top;spacingLeft=4;spacingRight=4;overflow=hidden;rotatable=0;points=[[0,0.5],[1,0.5]];portConstraint=eastwest;fontSize=25;" vertex="1" parent="mpdO8tZQgs7oVaQ_EQz1-125">
          <mxGeometry y="188" width="447.5" height="93" as="geometry" />
        </mxCell>
        <mxCell id="mpdO8tZQgs7oVaQ_EQz1-129" value="AutenticacionBiometriaRequestResponse&#xa;&lt;&lt;class&gt;&gt;" style="swimlane;fontStyle=1;align=center;verticalAlign=top;childLayout=stackLayout;horizontal=1;startSize=80;horizontalStack=0;resizeParent=1;resizeParentMax=0;resizeLast=0;collapsible=1;marginBottom=0;fillColor=#FFFFFF;fontSize=28;" vertex="1" parent="1">
          <mxGeometry x="1620" y="3660" width="581.25" height="281" as="geometry" />
        </mxCell>
        <mxCell id="mpdO8tZQgs7oVaQ_EQz1-130" value="- rostroId: String&#xa;- externalId: String&#xa;- fotografia: String" style="text;strokeColor=none;fillColor=none;align=left;verticalAlign=top;spacingLeft=4;spacingRight=4;overflow=hidden;rotatable=0;points=[[0,0.5],[1,0.5]];portConstraint=eastwest;fontSize=25;" vertex="1" parent="mpdO8tZQgs7oVaQ_EQz1-129">
          <mxGeometry y="80" width="581.25" height="110" as="geometry" />
        </mxCell>
        <mxCell id="mpdO8tZQgs7oVaQ_EQz1-131" value="" style="line;strokeWidth=1;fillColor=none;align=left;verticalAlign=middle;spacingTop=-1;spacingLeft=3;spacingRight=3;rotatable=0;labelPosition=right;points=[];portConstraint=eastwest;fontSize=28;" vertex="1" parent="mpdO8tZQgs7oVaQ_EQz1-129">
          <mxGeometry y="190" width="581.25" height="8" as="geometry" />
        </mxCell>
        <mxCell id="mpdO8tZQgs7oVaQ_EQz1-132" value="+ getters()&#xa;+ setter()" style="text;strokeColor=none;fillColor=none;align=left;verticalAlign=top;spacingLeft=4;spacingRight=4;overflow=hidden;rotatable=0;points=[[0,0.5],[1,0.5]];portConstraint=eastwest;fontSize=25;" vertex="1" parent="mpdO8tZQgs7oVaQ_EQz1-129">
          <mxGeometry y="198" width="581.25" height="83" as="geometry" />
        </mxCell>
        <mxCell id="mpdO8tZQgs7oVaQ_EQz1-133" value="" style="shape=folder;tabWidth=968;tabHeight=70;tabPosition=left;strokeWidth=2;html=1;whiteSpace=wrap;align=center;" vertex="1" parent="1">
          <mxGeometry x="-17.5" y="4430" width="2317.5" height="650" as="geometry" />
        </mxCell>
        <mxCell id="mpdO8tZQgs7oVaQ_EQz1-134" value="" style="shape=folder;tabWidth=1030;tabHeight=50;tabPosition=left;strokeWidth=2;html=1;whiteSpace=wrap;align=center;" vertex="1" parent="1">
          <mxGeometry y="4560" width="2230" height="450" as="geometry" />
        </mxCell>
        <mxCell id="mpdO8tZQgs7oVaQ_EQz1-135" value="&lt;b style=&quot;font-size: 35px;&quot;&gt;&lt;font style=&quot;font-size: 35px;&quot;&gt;service&lt;/font&gt;&lt;/b&gt;" style="text;html=1;strokeColor=none;fillColor=none;align=center;verticalAlign=middle;whiteSpace=wrap;rounded=0;fontSize=35;" vertex="1" parent="1">
          <mxGeometry x="10" y="4570" width="152.5" height="20" as="geometry" />
        </mxCell>
        <mxCell id="mpdO8tZQgs7oVaQ_EQz1-136" value="S3AlmacenamientoServiceImpl&#xa;&lt;&lt;class&gt;&gt;" style="swimlane;fontStyle=1;align=center;verticalAlign=top;childLayout=stackLayout;horizontal=1;startSize=80;horizontalStack=0;resizeParent=1;resizeParentMax=0;resizeLast=0;collapsible=1;marginBottom=0;fillColor=#FFFFFF;fontSize=28;" vertex="1" parent="1">
          <mxGeometry x="555" y="4740" width="460" height="142" as="geometry" />
        </mxCell>
        <mxCell id="mpdO8tZQgs7oVaQ_EQz1-137" value="-" style="text;strokeColor=none;fillColor=none;align=left;verticalAlign=top;spacingLeft=4;spacingRight=4;overflow=hidden;rotatable=0;points=[[0,0.5],[1,0.5]];portConstraint=eastwest;" vertex="1" parent="mpdO8tZQgs7oVaQ_EQz1-136">
          <mxGeometry y="80" width="460" height="54" as="geometry" />
        </mxCell>
        <mxCell id="mpdO8tZQgs7oVaQ_EQz1-138" value="" style="line;strokeWidth=1;fillColor=none;align=left;verticalAlign=middle;spacingTop=-1;spacingLeft=3;spacingRight=3;rotatable=0;labelPosition=right;points=[];portConstraint=eastwest;" vertex="1" parent="mpdO8tZQgs7oVaQ_EQz1-136">
          <mxGeometry y="134" width="460" height="8" as="geometry" />
        </mxCell>
        <mxCell id="mpdO8tZQgs7oVaQ_EQz1-139" value="&lt;span style=&quot;font-size: 35px;&quot;&gt;&lt;b style=&quot;font-size: 35px;&quot;&gt;autenticacion.almacenamiento&lt;/b&gt;&lt;/span&gt;" style="text;html=1;strokeColor=none;fillColor=none;align=center;verticalAlign=middle;whiteSpace=wrap;rounded=0;fontSize=35;" vertex="1" parent="1">
          <mxGeometry x="-8" y="4450" width="535" height="20" as="geometry" />
        </mxCell>
        <mxCell id="mpdO8tZQgs7oVaQ_EQz1-140" value="" style="endArrow=block;dashed=1;endFill=0;endSize=12;html=1;exitX=1;exitY=0.5;exitDx=0;exitDy=0;" edge="1" parent="1" source="mpdO8tZQgs7oVaQ_EQz1-136">
          <mxGeometry width="160" relative="1" as="geometry">
            <mxPoint x="770.0000000000007" y="4768.75" as="sourcePoint" />
            <mxPoint x="1235" y="4810.999999999998" as="targetPoint" />
          </mxGeometry>
        </mxCell>
        <mxCell id="mpdO8tZQgs7oVaQ_EQz1-141" value="AlmacenamientoService&#xa;&lt;&lt;interface&gt;&gt;" style="swimlane;fontStyle=1;align=center;verticalAlign=top;childLayout=stackLayout;horizontal=1;startSize=90;horizontalStack=0;resizeParent=1;resizeParentMax=0;resizeLast=0;collapsible=1;marginBottom=0;fillColor=#FFFFFF;fontSize=28;" vertex="1" parent="1">
          <mxGeometry x="1237.5" y="4740" width="380" height="178" as="geometry" />
        </mxCell>
        <mxCell id="mpdO8tZQgs7oVaQ_EQz1-142" value="" style="line;strokeWidth=1;fillColor=none;align=left;verticalAlign=middle;spacingTop=-1;spacingLeft=3;spacingRight=3;rotatable=0;labelPosition=right;points=[];portConstraint=eastwest;" vertex="1" parent="mpdO8tZQgs7oVaQ_EQz1-141">
          <mxGeometry y="90" width="380" height="8" as="geometry" />
        </mxCell>
        <mxCell id="mpdO8tZQgs7oVaQ_EQz1-143" value="+ cargarObjeto()&#xa;+ descargarObjeto()" style="text;strokeColor=none;fillColor=none;align=left;verticalAlign=top;spacingLeft=4;spacingRight=4;overflow=hidden;rotatable=0;points=[[0,0.5],[1,0.5]];portConstraint=eastwest;fontSize=25;" vertex="1" parent="mpdO8tZQgs7oVaQ_EQz1-141">
          <mxGeometry y="98" width="380" height="80" as="geometry" />
        </mxCell>
      </root>
    </mxGraphModel>
  </diagram>
</mxfile>
